<?xml version="1.0" standalone="no"?>
<!DOCTYPE svg PUBLIC "-//W3C//DTD SVG 20010904//EN"
 "http://www.w3.org/TR/2001/REC-SVG-20010904/DTD/svg10.dtd">
<svg version="1.0" xmlns="http://www.w3.org/2000/svg"
 width="200.000000pt" height="200.000000pt" viewBox="0 0 200.000000 200.000000"
 preserveAspectRatio="xMidYMid meet">
<metadata>
Created by potrace 1.11, written by Peter Selinger 2001-2013
</metadata>
<g transform="translate(0.000000,200.000000) scale(0.100000,-0.100000)"
fill="#000000" stroke="none">
<path d="M1181 1634 c0 -11 3 -14 6 -6 3 7 2 16 -1 19 -3 4 -6 -2 -5 -13z"/>
<path d="M1296 1544 c-4 -10 -26 -14 -85 -14 -44 0 -82 -4 -85 -8 -11 -17 6
-51 22 -45 9 4 13 2 9 -4 -8 -13 35 -26 57 -17 12 5 16 0 16 -21 0 -30 -14
-60 -44 -94 -11 -13 -15 -21 -8 -17 15 9 -110 -238 -134 -265 -13 -14 -19 -15
-28 -6 -14 13 -216 361 -216 371 0 3 7 6 15 6 8 0 15 5 15 10 0 6 -9 10 -20
10 -11 0 -20 5 -20 10 0 6 10 10 23 9 12 -1 40 -1 62 0 30 1 36 4 25 11 -10 6
-11 10 -2 10 6 0 12 9 12 20 0 20 -5 20 -185 18 -156 -3 -187 -1 -195 12 -7
10 -10 11 -10 3 0 -7 -11 -13 -24 -13 -13 0 -26 6 -29 13 -2 6 -8 -1 -12 -16
-9 -35 -3 -41 41 -40 28 1 38 -3 42 -19 3 -11 10 -17 19 -14 8 3 11 1 8 -4 -3
-6 0 -10 7 -10 7 0 31 -37 53 -82 22 -46 57 -110 77 -143 37 -59 37 -60 16
-71 -19 -10 -19 -11 11 -17 36 -8 40 -22 9 -32 -21 -7 -20 -8 9 -12 26 -4 34
-11 50 -49 10 -24 21 -44 26 -44 15 0 6 -17 -15 -28 -22 -10 -22 -11 10 -17
37 -8 51 -23 32 -35 -10 -6 -9 -9 1 -13 10 -4 9 -6 -3 -6 -22 -1 -24 -21 -3
-21 8 0 15 -4 15 -10 0 -5 7 -10 16 -10 13 0 15 -7 10 -32 -3 -18 -6 -93 -7
-165 0 -73 -5 -133 -10 -133 -5 0 -9 15 -9 33 l-1 32 -20 -38 c-11 -21 -17
-42 -14 -47 3 -6 1 -10 -5 -10 -6 0 -13 7 -16 15 -7 18 -44 20 -44 3 0 -9 -4
-8 -10 2 -8 12 -10 11 -10 -7 0 -12 -3 -28 -6 -37 -5 -13 2 -16 35 -16 23 0
41 -4 41 -10 0 -13 47 -13 55 1 5 6 53 10 134 9 221 -3 210 -4 208 28 -2 24
-6 27 -40 27 -24 0 -37 5 -37 13 0 7 -4 11 -9 7 -5 -3 -17 5 -25 17 -13 18
-16 52 -16 169 0 81 3 149 8 151 4 2 19 28 34 58 28 57 114 218 175 330 20 36
47 80 60 98 13 17 21 32 18 32 -3 0 4 18 15 41 18 35 25 40 46 35 29 -8 72 29
66 57 -3 14 -15 17 -77 17 -41 0 -76 4 -79 9 -10 16 -45 19 -50 5z m87 -109
c-16 -35 -33 -38 -33 -7 0 10 10 22 23 28 12 7 23 12 24 13 2 0 -5 -15 -14
-34z m-55 -36 c-10 -7 -10 -9 2 -9 11 -1 10 -4 -4 -15 -18 -14 -18 -15 -2 -15
10 0 16 -3 14 -7 -2 -5 -12 -25 -21 -45 -20 -44 -33 -54 -52 -38 -8 6 -18 9
-23 6 -5 -3 -9 1 -9 9 0 8 4 12 9 9 12 -8 32 19 65 90 18 38 29 53 31 41 2
-10 -2 -21 -10 -26z m-35 -17 c-3 -12 -9 -22 -14 -22 -12 0 -11 7 2 32 13 25
20 19 12 -10z m-608 -12 c-3 -5 -12 -10 -18 -10 -7 0 -6 4 3 10 19 12 23 12
15 0z m585 -34 c0 -3 -4 -8 -10 -11 -5 -3 -10 -1 -10 4 0 6 5 11 10 11 6 0 10
-2 10 -4z m-9 -135 c-12 -22 -26 -41 -31 -41 -14 0 -12 44 3 59 11 11 13 15
16 43 1 8 6 7 17 -4 14 -14 14 -19 -5 -57z m-64 -68 c-4 -3 -2 -12 4 -19 12
-14 -4 -29 -21 -19 -10 6 4 45 17 45 3 0 3 -3 0 -7z m-28 -95 c1 -5 -5 -8 -13
-8 -9 0 -12 -7 -9 -20 3 -11 0 -20 -6 -20 -14 0 -14 18 1 60 10 30 12 32 19
14 4 -10 8 -22 8 -26z m-339 2 c0 -5 -2 -10 -4 -10 -3 0 -8 5 -11 10 -3 6 -1
10 4 10 6 0 11 -4 11 -10z m144 -46 c3 -8 2 -12 -4 -9 -6 3 -10 10 -10 16 0
14 7 11 14 -7z m156 -35 c-7 -11 -14 -18 -17 -15 -8 8 5 36 17 36 7 0 7 -6 0
-21z m-60 -166 c0 -19 -3 -24 -10 -17 -6 6 -8 18 -4 27 9 24 14 21 14 -10z
m-13 -68 c8 -9 13 -18 11 -21 -3 -2 -13 5 -23 16 -21 23 -11 27 12 5z m-40
-77 c-3 -7 -5 -2 -5 12 0 14 2 19 5 13 2 -7 2 -19 0 -25z m53 -37 l0 -36 -20
25 c-11 14 -20 38 -20 54 0 28 0 29 20 11 13 -12 20 -31 20 -54z m-19 -38 c13
-16 12 -17 -3 -4 -10 7 -18 15 -18 17 0 8 8 3 21 -13z m-1 -47 c0 -3 -4 -8
-10 -11 -5 -3 -10 -1 -10 4 0 6 5 11 10 11 6 0 10 -2 10 -4z"/>
<path d="M1115 1230 c-9 -16 -13 -30 -11 -30 3 0 12 14 21 30 9 17 13 30 11
30 -3 0 -12 -13 -21 -30z"/>
<path d="M1060 1145 c-7 -9 -10 -18 -7 -21 3 -3 10 4 17 15 13 25 8 27 -10 6z"/>
<path d="M998 1114 c-2 -5 7 -20 20 -34 16 -15 23 -19 19 -9 -3 9 -1 22 4 28
6 8 5 8 -3 1 -7 -6 -15 -4 -23 7 -7 9 -14 12 -17 7z"/>
</g>
</svg>
